<svg xmlns="http://www.w3.org/2000/svg" viewBox="0 0 80.89 67.64"><title>アセット 1</title><g id="レイヤー_2" data-name="レイヤー 2"><g id="レイヤー_1-2" data-name="レイヤー 1"><path d="M28,0" transform="translate(0 -0.45)" fill="none" stroke="#323232" stroke-miterlimit="10" stroke-width="1.42"/><path d="M30.06,1.75a21.4,21.4,0,0,1,2,3.79A26.41,26.41,0,0,1,33.17,9.4l.73,3.8c.19,1.27.25,2.57.37,3.83a.71.71,0,0,1-1.36.32l0-.09c-.44-1.16-.8-2.31-1.3-3.42L30,10.57a22.48,22.48,0,0,0-1.82-3A16.68,16.68,0,0,0,26,5.24,2.73,2.73,0,1,1,30,1.68Z" transform="translate(0 -0.45)" fill="#323232"/><path d="M53.17,4.89A10.11,10.11,0,0,0,52.1,6a12.94,12.94,0,0,0-1,1.33,26.35,26.35,0,0,0-1.69,3.11L48,13.81c-.48,1.13-.77,2.29-1.18,3.45l0,.1A.7.7,0,0,1,45.43,17c.19-1.25.29-2.54.57-3.78l.84-3.74a29.38,29.38,0,0,1,1.24-3.73A16.62,16.62,0,0,1,49,3.91a14,14,0,0,1,1.21-1.82l0,0a2.05,2.05,0,1,1,3.22,2.55A2.17,2.17,0,0,1,53.17,4.89Z" transform="translate(0 -0.45)" fill="#323232"/><path d="M23.16,66a27.46,27.46,0,0,0,2.67-3.47,28.25,28.25,0,0,0,2.08-3.91l1.59-4.23a18,18,0,0,0,.69-2.15l.62-2.18v0a.71.71,0,0,1,1.37.35l-.51,2.27a19,19,0,0,1-.59,2.25l-1.41,4.45a30.22,30.22,0,0,1-2,4.31,29.52,29.52,0,0,1-2.72,4,1.21,1.21,0,1,1-1.87-1.52l0,0Z" transform="translate(0 -0.45)" fill="#323232"/><path d="M54.76,67.53c-.85-1.32-1.75-2.59-2.55-3.94a27.68,27.68,0,0,1-2.12-4.26c-.53-1.42-1.12-2.88-1.53-4.41a45.69,45.69,0,0,1-1-4.58A.71.71,0,0,1,49,50.08v0a44.25,44.25,0,0,0,1.17,4.35c.46,1.4,1.09,2.76,1.71,4.17A25.75,25.75,0,0,0,54,62.45c.83,1.25,1.77,2.42,2.64,3.63l.07.09a1.2,1.2,0,1,1-2,1.41Z" transform="translate(0 -0.45)" fill="#323232"/><path d="M30.1,22.77a7.74,7.74,0,0,0-1.39,3,7.7,7.7,0,0,0-.06.81,7,7,0,0,0,0,.8,2.68,2.68,0,0,0,.52,1.3,6.7,6.7,0,0,0,.5.68c.19.22.41.45.63.66a16.94,16.94,0,0,0,1.4,1.27,15,15,0,0,0,1.53,1.09q.4.25.83.49l.43.23.22.12.12.06.07,0,0,0a.91.91,0,0,1,.24.17.71.71,0,0,1-1,1,.62.62,0,0,0,.19.14h-.06l-.12,0-.25-.07-.51-.15q-.5-.16-1-.36a11.37,11.37,0,0,1-1.94-1,12.45,12.45,0,0,1-3.3-2.95,5.17,5.17,0,0,1-1-2.4,6,6,0,0,1,0-1.22c0-.2,0-.36.05-.57a4,4,0,0,1,.12-.63,5.59,5.59,0,0,1,1.1-2.17,5.82,5.82,0,0,1,1.78-1.49.71.71,0,0,1,.93,1Z" transform="translate(0 -0.45)" fill="#323232"/><path d="M51.3,23.16A6.54,6.54,0,0,0,48,21.65c-.24,0-.65,0-.93,0a3.74,3.74,0,0,0-.8.1,3.92,3.92,0,0,0-1.46.82,5.48,5.48,0,0,0-.62.62c-.22.25-.44.52-.65.79a18.86,18.86,0,0,0-1.2,1.68c-.37.58-.69,1.2-1,1.82l-.49.95-.24.48-.12.24-.06.13,0,.08,0,0a.9.9,0,0,1-.17.25.71.71,0,0,1-1-1,.55.55,0,0,0-.14.19V28.7l0-.13.07-.27.16-.53.37-1.06a17.3,17.3,0,0,1,.91-2.09,19.05,19.05,0,0,1,1.18-2c.22-.31.45-.62.7-.93a7.12,7.12,0,0,1,.89-1,6.15,6.15,0,0,1,2.32-1.29,5,5,0,0,1,1.37-.15,7.16,7.16,0,0,1,1.25.11,5.62,5.62,0,0,1,2.4,1,6.49,6.49,0,0,1,1.67,1.83.71.71,0,0,1-1,.93Z" transform="translate(0 -0.45)" fill="#323232"/><path d="M29.1,42.87a6.78,6.78,0,0,0,3,1.49,7.43,7.43,0,0,0,1.63,0,2.88,2.88,0,0,0,1.33-.53,13.25,13.25,0,0,0,2.59-2.53,17.75,17.75,0,0,0,1.08-1.53q.26-.4.5-.82l.24-.42.12-.22.06-.11,0-.07,0,0a.93.93,0,0,1,.16-.22.71.71,0,1,1,1,1,.6.6,0,0,0,.13-.16v.06l0,.12-.08.25c0,.17-.11.33-.17.49q-.18.49-.39,1a12.3,12.3,0,0,1-1,1.88A14.71,14.71,0,0,1,38,44.23c-.24.27-.48.53-.76.8a7.62,7.62,0,0,1-.91.73,4.92,4.92,0,0,1-2.37.93,7.14,7.14,0,0,1-2.36-.17A6.21,6.21,0,0,1,28,43.74a.71.71,0,0,1,1-.93Z" transform="translate(0 -0.45)" fill="#323232"/><path d="M49.87,44.76a6.43,6.43,0,0,0,1.6-3.08c0-.14,0-.26,0-.4l0-.47a5,5,0,0,0,0-.84,3.15,3.15,0,0,0-.64-1.43,6.08,6.08,0,0,0-.57-.7c-.21-.22-.44-.44-.68-.65a10.32,10.32,0,0,0-1.5-1.15c-.55-.35-1.14-.66-1.73-1l-.9-.47L45,34.37l-.23-.12-.12-.06-.07,0-.07,0a.93.93,0,0,1-.2-.15.71.71,0,1,1,1-1,.52.52,0,0,0-.14-.12c-.05,0,0,0,0,0h0l.12,0,.25.08.5.17,1,.38a18.48,18.48,0,0,1,2,.91,10.38,10.38,0,0,1,3.47,2.9,5.23,5.23,0,0,1,1.06,2.31,6.11,6.11,0,0,1,.06,1.23l0,.56c0,.2-.06.42-.1.62a5.83,5.83,0,0,1-1,2.2,6.42,6.42,0,0,1-1.69,1.61.71.71,0,0,1-.93-1.05Z" transform="translate(0 -0.45)" fill="#323232"/><path d="M24.59,40a22.17,22.17,0,0,1-3.11,1.21,29.82,29.82,0,0,1-3.2.83c-1.08.22-2.17.36-3.25.47a28.29,28.29,0,0,1-3.31.19,16.46,16.46,0,0,1-3.44-.35A13.79,13.79,0,0,1,4.94,41.1,9.53,9.53,0,0,1,.33,35.46,8.61,8.61,0,0,1,.11,31.7a9.06,9.06,0,0,1,1.32-3.51A10.32,10.32,0,0,1,7.31,24a17.81,17.81,0,0,1,6.8-.45,17.31,17.31,0,0,1,6.38,2,.71.71,0,0,1-.6,1.28h0a17.86,17.86,0,0,0-5.93-1.16,17.14,17.14,0,0,0-5.86.77A8,8,0,0,0,3.8,29.69a6.49,6.49,0,0,0-.75,5,7,7,0,0,0,3.24,4,12.2,12.2,0,0,0,5.49,1.49A36.1,36.1,0,0,0,24,38.71l.08,0A.71.71,0,0,1,24.59,40Z" transform="translate(0 -0.45)" fill="#323232"/><path d="M60.52,39.21a16.37,16.37,0,0,0,5.95,1,19.27,19.27,0,0,0,6-.69,14.08,14.08,0,0,0,2.67-1.15,8.1,8.1,0,0,0,2.11-1.81,5.84,5.84,0,0,0,1.16-5,7,7,0,0,0-3.23-4.27,13.49,13.49,0,0,0-5.55-1.82,16.19,16.19,0,0,0-3-.1c-1,.06-2.05.2-3.08.35a29.8,29.8,0,0,0-6,1.42l0,0a.71.71,0,0,1-.57-1.29A17.63,17.63,0,0,1,60,24.72c1-.3,2.1-.56,3.17-.78a32.64,32.64,0,0,1,3.25-.5,18.25,18.25,0,0,1,3.37,0,16.43,16.43,0,0,1,3.35.6,14.24,14.24,0,0,1,3.18,1.41,9.32,9.32,0,0,1,4.3,5.64A7.94,7.94,0,0,1,79,38a10.35,10.35,0,0,1-2.74,2.29A14.13,14.13,0,0,1,73,41.63a21.28,21.28,0,0,1-6.67.5,16.64,16.64,0,0,1-6.46-1.64.71.71,0,0,1,.59-1.29Z" transform="translate(0 -0.45)" fill="#323232"/></g></g></svg>